<svg width="36" height="36" fill="none" xmlns="http://www.w3.org/2000/svg"><g clip-path="url(#clip0)"><path fill="#FFFBFA" d="M.894.272h35v35h-35z"/><path d="M23.452 14.457a3.454 3.454 0 01-.586-1.311c-.204-.977.096-1.9.892-2.746a2.74 2.74 0 00.773-1.904c0-1.472-1.248-2.726-3.128-3.378V2.48a2.212 2.212 0 00-2.21-2.21h-1.599a2.212 2.212 0 00-2.208 2.21v2.636c-1.88.653-3.129 1.907-3.129 3.379 0 .709.268 1.368.773 1.904.796.845 1.096 1.769.893 2.745-.161.772-.583 1.306-.585 1.309l-.006.007c-1.878 2.365-2.955 5.89-2.955 9.672 0 4.616 1.618 8.82 4.221 10.975a.714.714 0 00.455.164h6.682a.713.713 0 00.455-.164c2.604-2.154 4.221-6.36 4.221-10.975 0-3.782-1.077-7.308-2.959-9.676zm-6.64-11.976c0-.432.35-.783.782-.783h1.6c.431 0 .782.351.782.783v2.28a9.95 9.95 0 00-1.58-.125h-.011c-.546 0-1.073.044-1.573.125v-2.28zm4.66 31.364h-6.155c-2.173-1.939-3.514-5.628-3.514-9.711 0-3.465.963-6.666 2.643-8.782.837-1.028 1.831-3.584-.378-5.93a1.339 1.339 0 01-.385-.926c0-2.467 4.708-2.434 4.711-2.434 0 0 4.71-.046 4.71 2.434 0 .339-.132.66-.384.926-2.209 2.346-1.215 4.902-.378 5.93 1.68 2.116 2.643 5.317 2.643 8.782 0 4.083-1.34 7.772-3.514 9.712z" fill="#C08D84"/><path d="M18.394 31.323c-2.41 0-4.842-1.85-4.842-5.982 0-3.592 1.931-9.023 4.842-9.023 2.91 0 4.842 5.43 4.842 9.023 0 4.133-2.432 5.982-4.842 5.982zm0-13.578c-1.564 0-3.416 4.117-3.416 7.596 0 2.768 1.341 4.556 3.416 4.556s3.416-1.788 3.416-4.556c0-3.479-1.852-7.596-3.416-7.596z" fill="#C08D84"/></g><defs><clipPath id="clip0"><path fill="#fff" transform="translate(.894 .272)" d="M0 0h35v35H0z"/></clipPath></defs></svg>