<svg width="36" height="36" fill="none" xmlns="http://www.w3.org/2000/svg"><g clip-path="url(#clip0)"><path fill="#FFFBFA" d="M.5.272h35v35H.5z"/><path d="M22.02.469C20.504.306 18.63.272 17.327.272c-1.203 0-2.06.027-2.096.029a.735.735 0 00-.71.734v2.872c0 .388.3.705.68.733v.618h-.286a.735.735 0 00-.732.661l-.43 4.229c-.743.24-1.387.552-1.883.928a2.387 2.387 0 00-.96 1.17 1.991 1.991 0 00-.157.765v19.884a2.38 2.38 0 002.377 2.377h8.771a2.38 2.38 0 002.377-2.377V13.01c0-.257-.052-.514-.155-.764a2.388 2.388 0 00-.96-1.171c-.497-.376-1.141-.688-1.885-.928l-.43-4.228a.735.735 0 00-.73-.661h-.287v-.616s.285-.025.384-.072c1.043-.5 3.463-.646 4.308-.66a.735.735 0 00.723-.736V2.112c0-1.14-1.55-1.463-3.226-1.643zm.788 12.542v19.884c0 .5-.407.906-.906.906H13.13a.907.907 0 01-.906-.906V13.01c0-.066.424-1.938 5.292-1.938 4.365 0 5.292 1.872 5.292 1.938zm-5.292-3.408a13.7 13.7 0 00-2.247.182l.31-3.056h3.874l.31 3.056a13.697 13.697 0 00-2.247-.182zm.844-4.345h-1.688v-.616h1.688v.616zm5.415-2.79c-1.031.055-2.884.219-4.034.704h-3.75V1.754c2.416-.215 7.305.325 7.784.563v.15z" fill="#C08D84"/><path d="M13.999 14.567a.735.735 0 00-.736.735v11.704c0 .405.33.735.736.735h7.034c.406 0 .735-.33.735-.735V15.302a.735.735 0 00-.735-.735H14zm6.299 11.703h-5.564V16.038h5.564V26.27z" fill="#C08D84"/></g><defs><clipPath id="clip0"><path fill="#fff" transform="translate(.5 .272)" d="M0 0h35v35H0z"/></clipPath></defs></svg>