<svg width="36" height="36" fill="none" xmlns="http://www.w3.org/2000/svg"><g clip-path="url(#clip0)"><path fill="#FFFBFA" d="M.894.272h35v35h-35z"/><path d="M28.155 1.03a.774.774 0 00-.774-.758H9.407a.774.774 0 00-.774.758c0 .042-.076 4.245.42 9.78.456 5.086 1.502 12.372 3.894 18.298v3.57a2.6 2.6 0 002.45 2.593h5.994a2.6 2.6 0 002.45-2.593v-3.57c2.392-5.926 3.438-13.212 3.894-18.298.496-5.535.42-9.738.42-9.78zm-1.587 3.293h-1.302V1.82h1.346a93.19 93.19 0 01-.044 2.504zm-4.019 23.848h-8.31c-2.85-7.294-3.707-16.702-3.96-22.3h16.23c-.252 5.597-1.11 15.002-3.96 22.3zm-.332-23.848V1.82h1.501v2.504h-1.501zm-1.548 0h-1.501V1.82h1.501v2.504zm-3.049 0h-1.5V1.82h1.501v2.504zm-3.049 0H13.07V1.82h1.501v2.504zM11.523 1.82v2.504H10.22a89.712 89.712 0 01-.044-2.504h1.346zM16.4 33.73a2.143 2.143 0 011.994-1.368c.908 0 1.684.568 1.995 1.367h-3.99zm5.894-1.05c0 .314-.14.596-.36.788a3.695 3.695 0 00-3.54-2.654 3.695 3.695 0 00-3.54 2.655 1.046 1.046 0 01-.36-.79v-2.96h7.8v2.96z" fill="#C08D84"/><path d="M22.851 9.59h-8.914a.774.774 0 00-.774.774v5.268c0 .427.347.774.774.774h8.914a.774.774 0 00.774-.774v-5.268a.774.774 0 00-.774-.773zm-.774 5.268h-7.366v-3.72h7.366v3.72z" fill="#C08D84"/></g><defs><clipPath id="clip0"><path fill="#fff" transform="translate(.894 .272)" d="M0 0h35v35H0z"/></clipPath></defs></svg>