<svg width="36" height="36" viewBox="0 0 36 36" fill="none" xmlns="http://www.w3.org/2000/svg">
<g clip-path="url(#clip0)">
<rect width="35" height="35" transform="translate(0.894043 0.271606)" fill="#FFFBFA"/>
<path d="M23.4524 14.457C23.4481 14.4516 23.0267 13.917 22.8656 13.1456C22.6617 12.1691 22.9621 11.2455 23.7582 10.4001C24.2636 9.86362 24.5309 9.20503 24.5309 8.49567C24.5309 7.02437 23.2831 5.77004 21.4027 5.11753V2.4806C21.4026 1.26268 20.4116 0.271606 19.1937 0.271606H17.5945C16.3765 0.271606 15.3856 1.26268 15.3856 2.4806V5.11724C13.5051 5.76975 12.2573 7.02418 12.2573 8.49557C12.2573 9.20494 12.5246 9.86362 13.03 10.4C13.8262 11.2454 14.1264 12.1689 13.9226 13.1455C13.7616 13.9169 13.34 14.4515 13.3383 14.4538C13.3362 14.4564 13.3342 14.4588 13.3323 14.4614C11.4542 16.8255 10.3772 20.3507 10.3772 24.1334C10.3772 28.7486 11.9947 32.9538 14.5985 35.108C14.7263 35.2136 14.887 35.2716 15.0529 35.2716H21.7353C21.9012 35.2716 22.062 35.2137 22.1899 35.1078C24.7936 32.9538 26.4111 28.7484 26.4111 24.1334C26.4111 20.3506 25.334 16.8254 23.4524 14.457ZM16.8116 2.4806C16.8116 2.04905 17.1628 1.69774 17.5944 1.69774H19.1936C19.6252 1.69774 19.9763 2.04905 19.9763 2.4806V4.76109C19.4738 4.6798 18.9445 4.63616 18.3962 4.63578C18.3925 4.63578 18.3887 4.63578 18.3849 4.63597C17.8389 4.63654 17.3121 4.68018 16.8116 4.76109V2.4806H16.8116ZM21.4711 33.8455H15.317C13.144 31.9061 11.8031 28.2169 11.8031 24.1335C11.8031 20.669 12.7664 17.4685 14.446 15.3522C15.2831 14.324 16.2773 11.7679 14.0679 9.42237C13.8163 9.15531 13.6833 8.83481 13.6833 8.49577C13.6833 6.0294 18.3906 6.0622 18.394 6.0622C18.3947 6.0622 23.1046 6.01581 23.1046 8.49577C23.1046 8.83481 22.9717 9.1554 22.72 9.42237C20.511 11.7677 21.5049 14.3236 22.3418 15.352C24.0216 17.4684 24.9848 20.6686 24.9848 24.1335C24.9849 28.2167 23.6441 31.9061 21.4711 33.8455Z" fill="#C08D84"/>
<path d="M18.3941 31.3235C15.984 31.3235 13.5521 29.4736 13.5521 25.3407C13.5521 21.7488 15.4833 16.3185 18.3941 16.3185C21.3048 16.3185 23.236 21.7487 23.236 25.3407C23.2359 29.4736 20.804 31.3235 18.3941 31.3235ZM18.3941 17.7446C16.8299 17.7446 14.9783 21.8621 14.9783 25.3407C14.9783 28.1087 16.3191 29.8973 18.3941 29.8973C20.469 29.8973 21.8098 28.1087 21.8098 25.3407C21.8097 21.8621 19.9582 17.7446 18.3941 17.7446Z" fill="#C08D84"/>
</g>
<defs>
<clipPath id="clip0">
<rect width="35" height="35" fill="white" transform="translate(0.894043 0.271606)"/>
</clipPath>
</defs>
</svg>
