<svg width="36" height="36" viewBox="0 0 36 36" fill="none" xmlns="http://www.w3.org/2000/svg">
<g clip-path="url(#clip0)">
<rect width="35" height="35" transform="translate(0.499512 0.271606)" fill="#FFFBFA"/>
<path d="M22.0204 0.468935C20.5036 0.305818 18.6309 0.271606 17.3269 0.271606C16.1244 0.271606 15.267 0.299446 15.2311 0.300524C14.8347 0.313562 14.5201 0.638718 14.5201 1.03534V3.90724C14.5201 4.29503 14.8205 4.61195 15.2012 4.6397V5.25844H14.9146C14.5373 5.25844 14.2213 5.54409 14.1832 5.91944L13.7538 10.1479C13.0098 10.3881 12.3655 10.7004 11.8695 11.0759C11.4319 11.3504 11.0923 11.7642 10.9092 12.2467C10.8058 12.4972 10.7534 12.7542 10.7534 13.0109V32.8947C10.7534 34.2054 11.8197 35.2716 13.1302 35.2716H21.9015C23.2121 35.2716 24.2783 34.2054 24.2783 32.8947V13.0109C24.2783 12.7543 24.226 12.4973 24.1226 12.2467C23.9394 11.7642 23.5998 11.3504 23.1622 11.0759C22.6662 10.7005 22.0218 10.3881 21.2779 10.148L20.8485 5.91954C20.8104 5.54419 20.4945 5.25854 20.1172 5.25854H19.8305V4.64254C19.8305 4.64254 20.1156 4.61793 20.2147 4.57059C21.258 4.07163 23.6782 3.92488 24.5227 3.91047C24.9237 3.90361 25.2455 3.57649 25.2455 3.17537V2.11167C25.2456 0.972795 23.6955 0.649109 22.0204 0.468935ZM22.808 13.0109V32.8947C22.808 33.3946 22.4014 33.8012 21.9016 33.8012H13.1303C12.6304 33.8012 12.2239 33.3946 12.2239 32.8947V13.0109C12.2239 12.9453 12.6478 11.0731 17.5159 11.0731C21.8814 11.0731 22.808 12.9454 22.808 13.0109ZM17.5159 9.60271C16.7335 9.60271 15.9766 9.66663 15.2686 9.78485L15.5789 6.72885H19.4529L19.7632 9.78485C19.0553 9.66663 18.2985 9.60271 17.5159 9.60271ZM18.3603 5.25844H16.6716V4.64244H18.3603V5.25844ZM23.7752 2.46722C22.744 2.52251 20.8914 2.6869 19.7408 3.17203H15.9905V1.75368C18.4074 1.5389 23.2955 2.07864 23.7752 2.31694V2.46722Z" fill="#C08D84"/>
<path d="M13.9986 14.5671C13.5926 14.5671 13.2634 14.8963 13.2634 15.3023V27.0055C13.2634 27.4115 13.5926 27.7407 13.9986 27.7407H21.0333C21.4394 27.7407 21.7685 27.4115 21.7685 27.0055V15.3023C21.7685 14.8963 21.4394 14.5671 21.0333 14.5671H13.9986ZM20.298 26.2703H14.7337V16.0375H20.298V26.2703Z" fill="#C08D84"/>
</g>
<defs>
<clipPath id="clip0">
<rect width="35" height="35" fill="white" transform="translate(0.499512 0.271606)"/>
</clipPath>
</defs>
</svg>
