<svg width="36" height="36" viewBox="0 0 36 36" fill="none" xmlns="http://www.w3.org/2000/svg">
<g clip-path="url(#clip0)">
<rect width="35" height="35" transform="translate(0.894043 0.271606)" fill="#FFFBFA"/>
<path d="M28.155 1.03042C28.1467 0.608971 27.8028 0.271606 27.3813 0.271606H9.40681C8.98537 0.271606 8.6414 0.608971 8.63314 1.03042C8.63232 1.0721 8.55742 5.27513 9.05356 10.81C9.50936 15.8958 10.5554 23.1816 12.9466 29.108V32.6785C12.9466 34.0614 14.033 35.195 15.3974 35.2714C15.4008 35.2717 21.3877 35.2717 21.3913 35.2713C22.7554 35.1948 23.8416 34.0613 23.8416 32.6785V29.108C26.2328 23.1816 27.2788 15.8958 27.7346 10.81C28.2308 5.27513 28.1558 1.0721 28.155 1.03042ZM26.5678 4.32339H25.2657V1.81915H26.6115C26.6101 2.38308 26.6009 3.24093 26.5678 4.32339ZM22.5494 28.1713H14.2387C11.3896 20.8765 10.5323 11.4694 10.2795 5.87104H26.509C26.2567 11.4684 25.3999 20.8735 22.5494 28.1713ZM22.2169 4.32339V1.81915H23.7182V4.32339H22.2169ZM20.6693 4.32339H19.1679V1.81915H20.6693V4.32339ZM17.6203 4.32339H16.1189V1.81915H17.6203V4.32339ZM14.5714 4.32339H13.07V1.81915H14.5714V4.32339ZM11.5225 1.81915V4.32339H10.2207C10.1876 3.24083 10.1783 2.38308 10.177 1.81915H11.5225ZM16.3998 33.7282C16.7109 32.9292 17.4864 32.3605 18.3942 32.3605C19.302 32.3605 20.0775 32.9292 20.3887 33.7282H16.3998ZM22.294 32.6785C22.294 32.9931 22.1543 33.2749 21.9345 33.4674C21.4861 31.9354 20.0692 30.8129 18.3943 30.8129C16.7194 30.8129 15.3023 31.9356 14.854 33.4677C14.634 33.2752 14.4942 32.9932 14.4942 32.6786V29.7188H22.2941V32.6785H22.294Z" fill="#C08D84"/>
<path d="M22.8511 9.5907H13.9371C13.5097 9.5907 13.1633 9.93714 13.1633 10.3645V15.6319C13.1633 16.0593 13.5097 16.4057 13.9371 16.4057H22.8511C23.2785 16.4057 23.6248 16.0593 23.6248 15.6319V10.3645C23.6248 9.93724 23.2785 9.5907 22.8511 9.5907ZM22.0773 14.8581H14.7109V11.1382H22.0773V14.8581Z" fill="#C08D84"/>
</g>
<defs>
<clipPath id="clip0">
<rect width="35" height="35" fill="white" transform="translate(0.894043 0.271606)"/>
</clipPath>
</defs>
</svg>
